<?xml version="1.0" encoding="utf-8"?>
<svg height="16px" viewBox="0 0 16 16" width="16px" xmlns="http://www.w3.org/2000/svg">
  <path d="M 3 1 C 1.355 1 0 2.355 0 4 L 0 12 C 0 13.645 1.355 15 3 15 L 11.883 15 C 12.715 15 13.461 14.598 13.938 14.063 C 14.41 13.531 14.676 12.895 14.848 12.262 L 15.82 9.652 C 16.211 8.203 15.727 7 15 6.484 C 14.516 6.141 14.285 6.191 14 6.16 L 14 5 C 14 4.145 13.441 3.41 12.906 3.172 C 12.488 2.984 12.098 2.988 11.953 3 L 8.414 3 L 6.707 1.293 C 6.52 1.105 6.266 1 6 1 L 3 1 Z M 3 3 L 5.586 3 L 7.293 4.707 C 7.48 4.895 7.734 5 8 5 L 12 5 L 12 6 L 7 6 L 7.039 6 C 6.125 5.961 5.293 6.395 4.852 6.969 C 4.137 8.195 2.251 11.51 1.61 12.947 C 1.439 13.475 1.61 13.316 2.134 13.488 C 2.661 13.656 3.571 13.823 3.739 13.3 C 4.228 12.288 5.871 9.496 6.289 8.504 C 6.5 8 6.992 8.012 7.188 8 L 13 8 C 14 8 14.047 8.703 13.887 9.129 L 12.918 11.738 C 12.797 12.176 12.617 12.539 12.441 12.734 C 12.266 12.934 12.156 13 11.883 13 L 3 13 C 2.43 13 1.996 12.801 1.996 12.231 L 2 4 C 2 3.43 2.469 3.207 3 3 Z M 12.105 4.996 L 12.109 4.996 L 12.109 5 L 12.113 5 L 12.109 5.004 L 12.105 5.004 L 12.105 5 C 12.102 5 12.098 5 12.094 5 L 12.09 5 L 12.086 4.996 L 12.105 4.996 Z M 12.105 4.996" fill="currentColor"/>
</svg>