<?xml version="1.0" encoding="UTF-8"?>
<svg height="128px" viewBox="0 0 128 128" width="128px" xmlns="http://www.w3.org/2000/svg" xmlns:xlink="http://www.w3.org/1999/xlink">
    <radialGradient id="a" cx="43.719002" cy="244.889008" gradientTransform="matrix(0.651054 0.615906 -0.767403 0.811196 219.484222 -152.166689)" gradientUnits="userSpaceOnUse" r="10">
        <stop offset="0" stop-color="#9a9996"/>
        <stop offset="1"/>
    </radialGradient>
    <path d="m 112.890625 25.503906 h -57.058594 c -6.3125 -0.058594 -9.175781 -6.582031 -13.046875 -6.582031 h -28.042968 c -3.871094 0 -7.007813 2.945313 -7.007813 6.582031 v 19.746094 c 0 3.632812 3.136719 6.582031 7.007813 6.582031 h 98.148437 c 3.871094 0 7.007813 -2.949219 7.007813 -6.582031 v -13.164062 c 0 -3.636719 -3.136719 -6.582032 -7.007813 -6.582032 z m 0 0" fill="#b5835a" fill-rule="evenodd"/>
    <path d="m 105.878906 32.085938 h -84.125 c -3.871094 0 -7.011718 2.945312 -7.011718 6.582031 v 6.582031 c 0 3.632812 3.140624 6.582031 7.011718 6.582031 h 84.125 c 3.871094 0 7.011719 -2.949219 7.011719 -6.582031 v -6.582031 c 0 -3.636719 -3.140625 -6.582031 -7.011719 -6.582031 z m 0 0" fill="#ffffff"/>
    <path d="m 112.890625 38.667969 h -98.148437 c -3.871094 0 -7.007813 2.957031 -7.007813 6.605469 v 66.070312 c 0 3.648438 3.136719 6.605469 7.007813 6.605469 h 98.148437 c 3.871094 0 7.007813 -2.957031 7.007813 -6.605469 v -66.070312 c 0 -3.648438 -3.136719 -6.605469 -7.007813 -6.605469 z m 0 0" fill="#3584e4"/>
    <path d="m 40.95312396497 49.06639936202 h 6.50390634146 c 4.83984359473 -2.71093805923 10.41796822651 -4.25781218765 16.35937478339 -4.25781218765 c 5.94140544022 0 11.52343728983 1.54687412842 16.35937478339 4.25781218765 h 6.50781132596 c 3.08203218668 0 5.58203184961 2.49999966293 5.58203184961 5.58593683411 v 5.95703096155 c 3.19921857166 5.13671845001 5.05078087436 11.20312471088 5.05078087436 17.69921885001 c 0 6.49609302247 -1.85156230271 12.56249928333 -5.05078087436 17.69921773335 v 5.95703096155 c 0 3.08203107001 -2.49999966294 5.58203184961 -5.58203184961 5.58203184961 h -6.5039052248 c -4.83984359473 2.71484304373 -10.42187544434 4.26171828882 -16.36328088456 4.26171828882 c -5.94140655689 0 -11.52343728983 -1.54687524509 -16.35937478339 -4.26171828882 h -6.50390634146 c -3.08593717117 0 -5.58593683411 -2.5000007796 -5.58593683411 -5.58203184961 v -5.95703096155 c -3.19921857166 -5.13671845002 -5.05078087436 -11.20312471088 -5.05078087436 -17.69921773335 c 0 -6.49609413913 1.85156230271 -12.5625004 5.05078087436 -17.69921885001 v -5.95703096155 c 0 -3.08593717118 2.49999966294 -5.58593683411 5.58593683411 -5.58593683411 z m 0 0" fill="#c0bfbc" stroke="#9a9996" stroke-width="1.116667"/>
    <path d="m 92.86327886053 78.3085860077 c 0 15.97656123579 -13.00390546509 28.92968626906 -29.04687377071 28.92968626906 c -16.03906220445 0 -29.04687488737 -12.95312503327 -29.04687488737 -28.92968626906 c 0 -15.97656235246 13.00781268293 -28.92968738572 29.04687488737 -28.92968738572 c 16.04296830561 0 29.04687377071 12.95312503327 29.04687377071 28.92968738572 z m 0 0" fill="#ffffff" stroke="#000000" stroke-width="2.233334"/>
    <path d="m 74.984375 78.308594 c 0 6.167968 -5 11.167968 -11.167969 11.167968 c -6.167968 0 -11.167968 -5 -11.167968 -11.167968 c 0 -6.167969 5 -11.167969 11.167968 -11.167969 c 6.167969 0 11.167969 5 11.167969 11.167969 z m 0 0" fill="url(#a)"/>
    <path d="m 41.25 53.078125 c 0 0.613281 -0.5 1.113281 -1.117188 1.113281 c -0.613281 0 -1.113281 -0.5 -1.113281 -1.113281 c 0 -0.617187 0.5 -1.113281 1.113281 -1.113281 c 0.617188 0 1.117188 0.496094 1.117188 1.113281 z m 0 0"/>
    <path d="m 88.664062 53.078125 c 0 0.613281 -0.5 1.113281 -1.117187 1.113281 s -1.117187 -0.5 -1.117187 -1.113281 c 0 -0.617187 0.5 -1.113281 1.117187 -1.113281 s 1.117187 0.496094 1.117187 1.113281 z m 0 0"/>
    <path d="m 88.945312 102.5625 c 0 0.613281 -0.5 1.113281 -1.117187 1.113281 s -1.117187 -0.5 -1.117187 -1.113281 c 0 -0.617188 0.5 -1.113281 1.117187 -1.113281 s 1.117187 0.496093 1.117187 1.113281 z m 0 0"/>
    <path d="m 40.925781 102.5625 c 0 0.613281 -0.5 1.113281 -1.113281 1.113281 c -0.617188 0 -1.117188 -0.5 -1.117188 -1.113281 c 0 -0.617188 0.5 -1.113281 1.117188 -1.113281 c 0.613281 0 1.113281 0.496093 1.113281 1.113281 z m 0 0"/>
</svg>
